<svg width="20" height="19" viewBox="0 0 20 19" fill="none" xmlns="http://www.w3.org/2000/svg">
<mask id="mask0_275_2273" style="mask-type:luminance" maskUnits="userSpaceOnUse" x="0" y="0" width="20" height="19">
<path d="M19.1121 0H0V18.1757H19.1121V0Z" fill="white"/>
</mask>
<g mask="url(#mask0_275_2273)">
<path d="M18.9166 2.20364C19.0282 2.31011 19.0908 2.45431 19.0908 2.60464C19.0908 2.75497 19.0282 2.89917 18.9166 3.00564L17.6707 4.1916L15.2817 1.91964L16.5276 0.733683C16.6396 0.627201 16.7915 0.567383 16.9498 0.567383C17.1082 0.567383 17.2601 0.627201 17.3721 0.733683L18.9166 2.20251V2.20364ZM16.8262 4.99361L14.4372 2.72165L6.29904 10.4622C6.23329 10.5247 6.1838 10.601 6.1545 10.6848L5.19292 13.4271C5.17548 13.4771 5.17301 13.5308 5.18577 13.582C5.19854 13.6333 5.22604 13.6801 5.2652 13.7173C5.30436 13.7546 5.35365 13.7807 5.40754 13.7929C5.46144 13.805 5.51782 13.8026 5.57038 13.7861L8.45392 12.8716C8.54203 12.844 8.62218 12.7974 8.68804 12.7353L16.8262 4.99361Z" fill="#FFA000"/>
<path fill-rule="evenodd" clip-rule="evenodd" d="M1.19531 15.3355C1.19531 15.7874 1.38409 16.2208 1.72011 16.5404C2.05613 16.8599 2.51187 17.0394 2.98708 17.0394H16.1266C16.6018 17.0394 17.0575 16.8599 17.3935 16.5404C17.7296 16.2208 17.9184 15.7874 17.9184 15.3355V8.51961C17.9184 8.36897 17.8554 8.2245 17.7434 8.11798C17.6314 8.01146 17.4795 7.95162 17.3211 7.95162C17.1627 7.95162 17.0108 8.01146 16.8988 8.11798C16.7868 8.2245 16.7239 8.36897 16.7239 8.51961V15.3355C16.7239 15.4861 16.6609 15.6306 16.5489 15.7371C16.4369 15.8436 16.285 15.9035 16.1266 15.9035H2.98708C2.82867 15.9035 2.67676 15.8436 2.56475 15.7371C2.45275 15.6306 2.38982 15.4861 2.38982 15.3355V2.83972C2.38982 2.68907 2.45275 2.5446 2.56475 2.43808C2.67676 2.33157 2.82867 2.27173 2.98708 2.27173H10.7513C10.9097 2.27173 11.0616 2.21188 11.1736 2.10537C11.2857 1.99885 11.3486 1.85438 11.3486 1.70373C11.3486 1.55309 11.2857 1.40863 11.1736 1.30211C11.0616 1.19558 10.9097 1.13574 10.7513 1.13574H2.98708C2.51187 1.13574 2.05613 1.31527 1.72011 1.63483C1.38409 1.95438 1.19531 2.3878 1.19531 2.83972V15.3355Z" fill="#FFA000"/>
</g>
</svg>
