<svg width="20" height="19" viewBox="0 0 20 19" fill="none" xmlns="http://www.w3.org/2000/svg">
<mask id="mask0_100_554" style="mask-type:luminance" maskUnits="userSpaceOnUse" x="0" y="0" width="20" height="19">
<path d="M19.1121 0H0V18.1757H19.1121V0Z" fill="white"/>
</mask>
<g mask="url(#mask0_100_554)">
<path d="M18.9146 2.20388C19.0262 2.31035 19.0889 2.45455 19.0889 2.60488C19.0889 2.75522 19.0262 2.89942 18.9146 3.00588L17.6688 4.19184L15.2797 1.91989L16.5256 0.733927C16.6376 0.627445 16.7895 0.567627 16.9479 0.567627C17.1062 0.567627 17.2582 0.627445 17.3702 0.733927L18.9146 2.20275V2.20388ZM16.8242 4.99385L14.4352 2.72189L6.29708 10.4624C6.23134 10.5249 6.18185 10.6012 6.15255 10.6851L5.19097 13.4273C5.17353 13.4774 5.17106 13.531 5.18382 13.5822C5.19658 13.6335 5.22408 13.6804 5.26325 13.7176C5.30241 13.7548 5.35169 13.781 5.40558 13.7931C5.45948 13.8052 5.51587 13.8029 5.56843 13.7863L8.45197 12.8719C8.54008 12.8443 8.62023 12.7977 8.68608 12.7355L16.8242 4.99385Z" fill="#FFA000"/>
<path fill-rule="evenodd" clip-rule="evenodd" d="M1.19434 15.3357C1.19434 15.7877 1.38312 16.221 1.71914 16.5406C2.05515 16.8602 2.51089 17.0397 2.9861 17.0397H16.1256C16.6008 17.0397 17.0566 16.8602 17.3926 16.5406C17.7286 16.221 17.9174 15.7877 17.9174 15.3357V8.51986C17.9174 8.36921 17.8545 8.22474 17.7425 8.11822C17.6305 8.01171 17.4786 7.95186 17.3201 7.95186C17.1617 7.95186 17.0098 8.01171 16.8978 8.11822C16.7858 8.22474 16.7229 8.36921 16.7229 8.51986V15.3357C16.7229 15.4864 16.6599 15.6309 16.5479 15.7373C16.4359 15.8438 16.284 15.9037 16.1256 15.9037H2.9861C2.82769 15.9037 2.67578 15.8438 2.56377 15.7373C2.45177 15.6309 2.38885 15.4864 2.38885 15.3357V2.83996C2.38885 2.68932 2.45177 2.54485 2.56377 2.43833C2.67578 2.33181 2.82769 2.27197 2.9861 2.27197H10.7504C10.9087 2.27197 11.0606 2.21213 11.1726 2.10561C11.2847 1.99909 11.3476 1.85462 11.3476 1.70398C11.3476 1.55333 11.2847 1.40887 11.1726 1.30235C11.0606 1.19583 10.9087 1.13599 10.7504 1.13599H2.9861C2.51089 1.13599 2.05515 1.31552 1.71914 1.63507C1.38312 1.95462 1.19434 2.38804 1.19434 2.83996V15.3357Z" fill="#FFA000"/>
</g>
</svg>
