<svg width="117" height="78" viewBox="0 0 117 78" fill="none" xmlns="http://www.w3.org/2000/svg">
<g clip-path="url(#clip0_251_3674)">
<path d="M117 0H0V78H117V0Z" fill="#FFFAF4"/>
<path d="M74.8808 15.6H9.36078C8.49922 15.6 7.80078 16.2984 7.80078 17.16V60.84C7.80078 61.7016 8.49922 62.4 9.36078 62.4H74.8808C75.7423 62.4 76.4408 61.7016 76.4408 60.84V17.16C76.4408 16.2984 75.7423 15.6 74.8808 15.6Z" fill="#F9E5C8"/>
<path d="M35.7278 42.1726C35.5763 42.1726 35.4462 42.1191 35.3372 42.0121C35.2283 41.903 35.1738 41.772 35.1738 41.6186C35.1738 41.4673 35.2283 41.338 35.3372 41.2308C35.4462 41.1219 35.5763 41.0675 35.7278 41.0675C35.8793 41.0675 36.0094 41.1219 36.1183 41.2308C36.2273 41.338 36.2817 41.4673 36.2817 41.6186C36.2817 41.7202 36.2558 41.8135 36.2042 41.8985C36.1543 41.9815 36.0878 42.0479 36.0047 42.0979C35.9217 42.1478 35.8293 42.1726 35.7278 42.1726ZM38.3135 36.4472V42.12H37.4575V36.4472H38.3135ZM39.5599 36.4472H40.5986L42.4046 40.8569H42.471L44.2771 36.4472H45.3157V42.12H44.5014V38.015H44.4488L42.7757 42.1117H42.0999L40.4268 38.0122H40.3742V42.12H39.5599V36.4472ZM50.3991 38.2393C50.3456 38.0713 50.2735 37.9208 50.1831 37.7879C50.0945 37.6531 49.9884 37.5386 49.8645 37.4444C49.7408 37.3484 49.5996 37.2754 49.4408 37.2257C49.2839 37.1757 49.1112 37.1508 48.9229 37.1508C48.6034 37.1508 48.3153 37.233 48.0586 37.3974C47.8019 37.5617 47.5988 37.8027 47.4492 38.1203C47.3016 38.4361 47.2276 38.8229 47.2276 39.2808C47.2276 39.7407 47.3024 40.1294 47.452 40.4471C47.6016 40.7647 47.8066 41.0055 48.0669 41.17C48.3273 41.3342 48.6237 41.4164 48.9561 41.4164C49.2644 41.4164 49.5332 41.3537 49.762 41.2282C49.9929 41.1026 50.171 40.9252 50.2966 40.6964C50.4241 40.4655 50.4877 40.194 50.4877 39.8819L50.7094 39.9235H49.0862V39.2172H51.3159V39.8625C51.3159 40.339 51.2144 40.7527 51.0113 41.1035C50.81 41.4525 50.5312 41.7221 50.1748 41.9122C49.8202 42.1025 49.414 42.1975 48.9561 42.1975C48.4427 42.1975 47.9922 42.0794 47.6044 41.8429C47.2184 41.6066 46.9174 41.2715 46.7013 40.8375C46.4854 40.4018 46.3773 39.8847 46.3773 39.2864C46.3773 38.834 46.4401 38.4278 46.5656 38.0676C46.6912 37.7075 46.8676 37.4019 47.0947 37.1508C47.3237 36.8979 47.5924 36.7049 47.9008 36.5719C48.2109 36.4371 48.5497 36.3697 48.9173 36.3697C49.2238 36.3697 49.5091 36.4149 49.7732 36.5054C50.0391 36.5959 50.2754 36.7243 50.4823 36.8904C50.691 37.0567 50.8635 37.2542 51.0002 37.4832C51.1368 37.7104 51.2292 37.9624 51.2772 38.2393H50.3991Z" fill="#C79E63"/>
<path d="M107.64 15.6H85.8002C84.9387 15.6 84.2402 16.2984 84.2402 17.16V35.88C84.2402 36.7416 84.9387 37.44 85.8002 37.44H107.64C108.502 37.44 109.2 36.7416 109.2 35.88V17.16C109.2 16.2984 108.502 15.6 107.64 15.6Z" fill="#F9E5C8"/>
<path d="M91.4873 28.1168C91.3813 28.1168 91.2902 28.0794 91.214 28.0043C91.1377 27.928 91.0996 27.8363 91.0996 27.729C91.0996 27.6231 91.1377 27.5326 91.214 27.4575C91.2902 27.3813 91.3813 27.3432 91.4873 27.3432C91.5934 27.3432 91.6845 27.3813 91.7607 27.4575C91.837 27.5326 91.8751 27.6231 91.8751 27.729C91.8751 27.8001 91.857 27.8655 91.8208 27.9249C91.7859 27.9831 91.7394 28.0296 91.6812 28.0645C91.623 28.0993 91.5584 28.1168 91.4873 28.1168ZM93.2973 24.109V28.08H92.6981V24.109H93.2973ZM94.1698 24.109H94.897L96.161 27.1958H96.2077L97.4717 24.109H98.1989V28.08H97.6288V25.2065H97.592L96.4209 28.0742H95.9478L94.7767 25.2046H94.7399V28.08H94.1698V24.109ZM101.757 25.3636C101.72 25.2459 101.669 25.1406 101.606 25.0475C101.544 24.9531 101.47 24.8729 101.383 24.8071C101.297 24.7399 101.198 24.6889 101.086 24.6539C100.977 24.619 100.856 24.6015 100.724 24.6015C100.5 24.6015 100.299 24.6591 100.119 24.7742C99.9392 24.8892 99.7971 25.0578 99.6924 25.2803C99.589 25.5011 99.5372 25.772 99.5372 26.0925C99.5372 26.4145 99.5896 26.6866 99.6943 26.9089C99.7989 27.1312 99.9425 27.2998 100.125 27.415C100.307 27.5299 100.515 27.5875 100.747 27.5875C100.963 27.5875 101.151 27.5435 101.311 27.4557C101.473 27.3677 101.598 27.2437 101.686 27.0835C101.775 26.9218 101.819 26.7318 101.819 26.5133L101.975 26.5425H100.838V26.0479H102.399V26.4997C102.399 26.8332 102.328 27.1228 102.186 27.3685C102.045 27.6128 101.85 27.8014 101.6 27.9346C101.352 28.0677 101.068 28.1343 100.747 28.1343C100.388 28.1343 100.072 28.0516 99.801 27.8861C99.5308 27.7206 99.32 27.4861 99.1689 27.1822C99.0175 26.8772 98.942 26.5153 98.942 26.0964C98.942 25.7798 98.9859 25.4954 99.0739 25.2433C99.1617 24.9913 99.2852 24.7773 99.4442 24.6015C99.6044 24.4244 99.7926 24.2893 100.008 24.1964C100.226 24.102 100.463 24.0547 100.72 24.0547C100.935 24.0547 101.134 24.0864 101.319 24.1497C101.505 24.2131 101.671 24.3029 101.815 24.4193C101.962 24.5357 102.082 24.6739 102.178 24.8343C102.274 24.9932 102.338 25.1696 102.372 25.3636H101.757Z" fill="#C79E63"/>
<path d="M107.64 40.56H85.8002C84.9387 40.56 84.2402 41.2584 84.2402 42.12V60.84C84.2402 61.7016 84.9387 62.4 85.8002 62.4H107.64C108.502 62.4 109.2 61.7016 109.2 60.84V42.12C109.2 41.2584 108.502 40.56 107.64 40.56Z" fill="#F9E5C8"/>
<path d="M91.4873 53.0768C91.3813 53.0768 91.2902 53.0394 91.214 52.9643C91.1377 52.8881 91.0996 52.7963 91.0996 52.689C91.0996 52.5831 91.1377 52.4926 91.214 52.4176C91.2902 52.3413 91.3813 52.3032 91.4873 52.3032C91.5934 52.3032 91.6845 52.3413 91.7607 52.4176C91.837 52.4926 91.8751 52.5831 91.8751 52.689C91.8751 52.7601 91.857 52.8255 91.8208 52.8849C91.7859 52.9431 91.7394 52.9896 91.6812 53.0246C91.623 53.0594 91.5584 53.0768 91.4873 53.0768ZM93.2973 49.069V53.04H92.6981V49.069H93.2973ZM94.1698 49.069H94.897L96.161 52.1558H96.2077L97.4717 49.069H98.1989V53.04H97.6288V50.1665H97.592L96.4209 53.0342H95.9478L94.7767 50.1646H94.7399V53.04H94.1698V49.069ZM101.757 50.3236C101.72 50.206 101.669 50.1007 101.606 50.0075C101.544 49.9131 101.47 49.833 101.383 49.7671C101.297 49.6999 101.198 49.6489 101.086 49.6139C100.977 49.579 100.856 49.5615 100.724 49.5615C100.5 49.5615 100.299 49.6191 100.119 49.7342C99.9392 49.8492 99.7971 50.0178 99.6924 50.2403C99.589 50.4612 99.5372 50.732 99.5372 51.0526C99.5372 51.3746 99.5896 51.6466 99.6943 51.8689C99.7989 52.0912 99.9425 52.2599 100.125 52.375C100.307 52.49 100.515 52.5475 100.747 52.5475C100.963 52.5475 101.151 52.5035 101.311 52.4157C101.473 52.3277 101.598 52.2037 101.686 52.0435C101.775 51.8819 101.819 51.6919 101.819 51.4733L101.975 51.5025H100.838V51.0079H102.399V51.4597C102.399 51.7933 102.328 52.0828 102.186 52.3285C102.045 52.5728 101.85 52.7614 101.6 52.8946C101.352 53.0277 101.068 53.0943 100.747 53.0943C100.388 53.0943 100.072 53.0116 99.801 52.8461C99.5308 52.6806 99.32 52.4461 99.1689 52.1422C99.0175 51.8372 98.942 51.4753 98.942 51.0565C98.942 50.7398 98.9859 50.4554 99.0739 50.2033C99.1617 49.9514 99.2852 49.7373 99.4442 49.5615C99.6044 49.3845 99.7926 49.2494 100.008 49.1564C100.226 49.062 100.463 49.0147 100.72 49.0147C100.935 49.0147 101.134 49.0464 101.319 49.1097C101.505 49.1731 101.671 49.2629 101.815 49.3793C101.962 49.4957 102.082 49.6339 102.178 49.7943C102.274 49.9532 102.338 50.1297 102.372 50.3236H101.757Z" fill="#C79E63"/>
</g>
<defs>
<clipPath id="clip0_251_3674">
<rect width="117" height="78" fill="white"/>
</clipPath>
</defs>
</svg>
