<svg width="117" height="78" viewBox="0 0 117 78" fill="none" xmlns="http://www.w3.org/2000/svg">
<g clip-path="url(#clip0_251_3626)">
<path d="M117 0H0V78H117V0Z" fill="#FFFAF4"/>
<path d="M7.80078 26.52C7.80078 25.6584 8.49922 24.96 9.36078 24.96H28.0808C28.9424 24.96 29.6408 25.6584 29.6408 26.52V45.24C29.6408 46.1016 28.9424 46.8 28.0808 46.8H9.36078C8.49922 46.8 7.80078 46.1016 7.80078 45.24V26.52Z" fill="#F9E5C8"/>
<path d="M13.4874 37.4768C13.3814 37.4768 13.2903 37.4394 13.214 37.3643C13.1377 37.2881 13.0996 37.1963 13.0996 37.089C13.0996 36.9831 13.1377 36.8926 13.214 36.8176C13.2903 36.7413 13.3814 36.7032 13.4874 36.7032C13.5934 36.7032 13.6845 36.7413 13.7608 36.8176C13.8371 36.8926 13.8752 36.9831 13.8752 37.089C13.8752 37.1601 13.8571 37.2255 13.8209 37.2849C13.786 37.3431 13.7395 37.3896 13.6813 37.4246C13.6231 37.4593 13.5585 37.4768 13.4874 37.4768Z" fill="#C79E63"/>
<path d="M15.2984 33.469V37.44H14.6992V33.469H15.2984Z" fill="#C79E63"/>
<path d="M16.1699 33.469H16.897L18.1611 36.5558H18.2078L19.4718 33.469H20.1989V37.44H19.6289V34.5665H19.5921L18.421 37.4342H17.9479L16.7768 34.5646H16.7399V37.44H16.1699V33.469Z" fill="#C79E63"/>
<path d="M23.7587 34.7236C23.7211 34.6059 23.6707 34.5007 23.6074 34.4075C23.5453 34.3131 23.471 34.233 23.3844 34.1671C23.2979 34.0999 23.199 34.0489 23.0877 34.0139C22.9779 33.979 22.857 33.9615 22.7252 33.9615C22.5015 33.9615 22.2999 34.0191 22.1202 34.1342C21.9405 34.2492 21.7984 34.4178 21.6937 34.6403C21.5903 34.8612 21.5385 35.132 21.5385 35.4526C21.5385 35.7745 21.5909 36.0466 21.6956 36.2689C21.8003 36.4912 21.9438 36.6598 22.126 36.775C22.3084 36.8899 22.5158 36.9475 22.7484 36.9475C22.9643 36.9475 23.1523 36.9035 23.3127 36.8157C23.4743 36.7277 23.5989 36.6037 23.6869 36.4435C23.776 36.2819 23.8206 36.0919 23.8206 35.8733L23.9758 35.9025H22.8395V35.4079H24.4005V35.8597C24.4005 36.1932 24.3293 36.4828 24.1871 36.7285C24.0462 36.9728 23.851 37.1614 23.6016 37.2946C23.3534 37.4277 23.069 37.4943 22.7484 37.4943C22.3892 37.4943 22.0737 37.4116 21.8023 37.2461C21.5321 37.0806 21.3213 36.8461 21.1702 36.5422C21.0189 36.2372 20.9434 35.8753 20.9434 35.4565C20.9434 35.1398 20.9872 34.8554 21.0752 34.6033C21.163 34.3514 21.2866 34.1373 21.4455 33.9615C21.6057 33.7845 21.7939 33.6494 22.0098 33.5564C22.2269 33.462 22.464 33.4147 22.7213 33.4147C22.9359 33.4147 23.1356 33.4464 23.3205 33.5097C23.5066 33.5731 23.672 33.6629 23.8167 33.7793C23.9629 33.8957 24.0838 34.0339 24.1794 34.1943C24.2751 34.3532 24.3396 34.5297 24.3733 34.7236H23.7587Z" fill="#C79E63"/>
<path d="M7.80078 49.92H29.6408V53.04H7.80078V49.92Z" fill="#C79E63"/>
<path d="M60.8398 26.52C60.8398 25.6584 61.5383 24.96 62.3998 24.96H81.1198C81.9814 24.96 82.6798 25.6584 82.6798 26.52V45.24C82.6798 46.1016 81.9814 46.8 81.1198 46.8H62.3998C61.5383 46.8 60.8398 46.1016 60.8398 45.24V26.52Z" fill="#F9E5C8"/>
<path d="M66.5283 37.4768C66.4224 37.4768 66.3313 37.4394 66.255 37.3643C66.1787 37.2881 66.1406 37.1963 66.1406 37.089C66.1406 36.9831 66.1787 36.8926 66.255 36.8176C66.3313 36.7413 66.4224 36.7032 66.5283 36.7032C66.6344 36.7032 66.7255 36.7413 66.8018 36.8176C66.878 36.8926 66.9161 36.9831 66.9161 37.089C66.9161 37.1601 66.898 37.2255 66.8618 37.2849C66.8269 37.3431 66.7804 37.3896 66.7222 37.4246C66.664 37.4593 66.5994 37.4768 66.5283 37.4768Z" fill="#C79E63"/>
<path d="M68.3375 33.469V37.44H67.7383V33.469H68.3375Z" fill="#C79E63"/>
<path d="M69.2109 33.469H69.9381L71.2021 36.5558H71.2488L72.5128 33.469H73.2399V37.44H72.6699V34.5665H72.6331L71.462 37.4342H70.9889L69.8178 34.5646H69.781V37.44H69.2109V33.469Z" fill="#C79E63"/>
<path d="M76.7978 34.7236C76.7602 34.6059 76.7098 34.5007 76.6464 34.4075C76.5843 34.3131 76.5101 34.233 76.4235 34.1671C76.3369 34.0999 76.238 34.0489 76.1268 34.0139C76.017 33.979 75.8961 33.9615 75.7642 33.9615C75.5405 33.9615 75.339 34.0191 75.1593 34.1342C74.9796 34.2492 74.8375 34.4178 74.7328 34.6403C74.6294 34.8612 74.5776 35.132 74.5776 35.4526C74.5776 35.7745 74.63 36.0466 74.7346 36.2689C74.8393 36.4912 74.9828 36.6598 75.1651 36.775C75.3474 36.8899 75.5549 36.9475 75.7875 36.9475C76.0034 36.9475 76.1914 36.9035 76.3517 36.8157C76.5134 36.7277 76.638 36.6037 76.726 36.4435C76.8151 36.2819 76.8597 36.0919 76.8597 35.8733L77.0149 35.9025H75.8786V35.4079H77.4395V35.8597C77.4395 36.1932 77.3684 36.4828 77.2261 36.7285C77.0853 36.9728 76.8901 37.1614 76.6407 37.2946C76.3925 37.4277 76.1081 37.4943 75.7875 37.4943C75.4282 37.4943 75.1128 37.4116 74.8414 37.2461C74.5712 37.0806 74.3604 36.8461 74.2092 36.5422C74.0579 36.2372 73.9824 35.8753 73.9824 35.4565C73.9824 35.1398 74.0263 34.8554 74.1142 34.6033C74.2021 34.3514 74.3256 34.1373 74.4846 33.9615C74.6448 33.7845 74.8329 33.6494 75.0488 33.5564C75.266 33.462 75.5031 33.4147 75.7604 33.4147C75.975 33.4147 76.1747 33.4464 76.3595 33.5097C76.5457 33.5731 76.711 33.6629 76.8558 33.7793C77.002 33.8957 77.1229 34.0339 77.2185 34.1943C77.3141 34.3532 77.3787 34.5297 77.4124 34.7236H76.7978Z" fill="#C79E63"/>
<path d="M60.8398 49.92H82.6798V53.04H60.8398V49.92Z" fill="#C79E63"/>
<path d="M87.3594 26.52C87.3594 25.6584 88.0578 24.96 88.9194 24.96H107.639C108.501 24.96 109.199 25.6584 109.199 26.52V45.24C109.199 46.1016 108.501 46.8 107.639 46.8H88.9194C88.0578 46.8 87.3594 46.1016 87.3594 45.24V26.52Z" fill="#F9E5C8"/>
<path d="M93.0478 37.4768C92.9419 37.4768 92.8508 37.4394 92.7745 37.3643C92.6982 37.2881 92.6602 37.1963 92.6602 37.089C92.6602 36.9831 92.6982 36.8926 92.7745 36.8176C92.8508 36.7413 92.9419 36.7032 93.0478 36.7032C93.1539 36.7032 93.245 36.7413 93.3213 36.8176C93.3976 36.8926 93.4356 36.9831 93.4356 37.089C93.4356 37.1601 93.4175 37.2255 93.3813 37.2849C93.3464 37.3431 93.2999 37.3896 93.2417 37.4246C93.1835 37.4593 93.119 37.4768 93.0478 37.4768Z" fill="#C79E63"/>
<path d="M94.857 33.469V37.44H94.2578V33.469H94.857Z" fill="#C79E63"/>
<path d="M95.7305 33.469H96.4576L97.7216 36.5558H97.7683L99.0324 33.469H99.7595V37.44H99.1895V34.5665H99.1526L97.9815 37.4342H97.5084L96.3373 34.5646H96.3005V37.44H95.7305V33.469Z" fill="#C79E63"/>
<path d="M103.317 34.7236C103.28 34.6059 103.229 34.5007 103.166 34.4075C103.104 34.3131 103.03 34.233 102.943 34.1671C102.856 34.0999 102.758 34.0489 102.646 34.0139C102.537 33.979 102.416 33.9615 102.284 33.9615C102.06 33.9615 101.859 34.0191 101.679 34.1342C101.499 34.2492 101.357 34.4178 101.252 34.6403C101.149 34.8612 101.097 35.132 101.097 35.4526C101.097 35.7745 101.15 36.0466 101.254 36.2689C101.359 36.4912 101.502 36.6598 101.685 36.775C101.867 36.8899 102.074 36.9475 102.307 36.9475C102.523 36.9475 102.711 36.9035 102.871 36.8157C103.033 36.7277 103.158 36.6037 103.246 36.4435C103.335 36.2819 103.379 36.0919 103.379 35.8733L103.534 35.9025H102.398V35.4079H103.959V35.8597C103.959 36.1932 103.888 36.4828 103.746 36.7285C103.605 36.9728 103.41 37.1614 103.16 37.2946C102.912 37.4277 102.628 37.4943 102.307 37.4943C101.948 37.4943 101.632 37.4116 101.361 37.2461C101.091 37.0806 100.88 36.8461 100.729 36.5422C100.577 36.2372 100.502 35.8753 100.502 35.4565C100.502 35.1398 100.546 34.8554 100.634 34.6033C100.722 34.3514 100.845 34.1373 101.004 33.9615C101.164 33.7845 101.352 33.6494 101.568 33.5564C101.786 33.462 102.023 33.4147 102.28 33.4147C102.495 33.4147 102.694 33.4464 102.879 33.5097C103.065 33.5731 103.231 33.6629 103.375 33.7793C103.521 33.8957 103.642 34.0339 103.738 34.1943C103.834 34.3532 103.898 34.5297 103.932 34.7236H103.317Z" fill="#C79E63"/>
<path d="M87.3594 49.92H109.199V53.04H87.3594V49.92Z" fill="#C79E63"/>
<path d="M34.3203 26.52C34.3203 25.6584 35.0187 24.96 35.8803 24.96H54.6003C55.4619 24.96 56.1603 25.6584 56.1603 26.52V45.24C56.1603 46.1016 55.4619 46.8 54.6003 46.8H35.8803C35.0187 46.8 34.3203 46.1016 34.3203 45.24V26.52Z" fill="#F9E5C8"/>
<path d="M40.0068 37.4768C39.9009 37.4768 39.8098 37.4394 39.7335 37.3643C39.6572 37.2881 39.6191 37.1963 39.6191 37.089C39.6191 36.9831 39.6572 36.8926 39.7335 36.8176C39.8098 36.7413 39.9009 36.7032 40.0068 36.7032C40.1129 36.7032 40.204 36.7413 40.2803 36.8176C40.3566 36.8926 40.3946 36.9831 40.3946 37.089C40.3946 37.1601 40.3765 37.2255 40.3403 37.2849C40.3054 37.3431 40.2589 37.3896 40.2007 37.4246C40.1425 37.4593 40.0779 37.4768 40.0068 37.4768Z" fill="#C79E63"/>
<path d="M41.8179 33.469V37.44H41.2188V33.469H41.8179Z" fill="#C79E63"/>
<path d="M42.6895 33.469H43.4166L44.6806 36.5558H44.7273L45.9913 33.469H46.7185V37.44H46.1484V34.5665H46.1116L44.9405 37.4342H44.4674L43.2963 34.5646H43.2595V37.44H42.6895V33.469Z" fill="#C79E63"/>
<path d="M50.2782 34.7236C50.2406 34.6059 50.1902 34.5007 50.1269 34.4075C50.0648 34.3131 49.9906 34.233 49.904 34.1671C49.8174 34.0999 49.7185 34.0489 49.6073 34.0139C49.4974 33.979 49.3765 33.9615 49.2447 33.9615C49.021 33.9615 48.8195 34.0191 48.6398 34.1342C48.46 34.2492 48.3179 34.4178 48.2133 34.6403C48.1098 34.8612 48.058 35.132 48.058 35.4526C48.058 35.7745 48.1104 36.0466 48.2151 36.2689C48.3198 36.4912 48.4633 36.6598 48.6455 36.775C48.8279 36.8899 49.0354 36.9475 49.268 36.9475C49.4839 36.9475 49.6719 36.9035 49.8322 36.8157C49.9938 36.7277 50.1185 36.6037 50.2065 36.4435C50.2955 36.2819 50.3402 36.0919 50.3402 35.8733L50.4954 35.9025H49.3591V35.4079H50.92V35.8597C50.92 36.1932 50.8489 36.4828 50.7066 36.7285C50.5657 36.9728 50.3706 37.1614 50.1211 37.2946C49.8729 37.4277 49.5885 37.4943 49.268 37.4943C48.9087 37.4943 48.5933 37.4116 48.3218 37.2461C48.0516 37.0806 47.8409 36.8461 47.6897 36.5422C47.5384 36.2372 47.4629 35.8753 47.4629 35.4565C47.4629 35.1398 47.5067 34.8554 47.5947 34.6033C47.6825 34.3514 47.8061 34.1373 47.9651 33.9615C48.1253 33.7845 48.3134 33.6494 48.5293 33.5564C48.7465 33.462 48.9836 33.4147 49.2408 33.4147C49.4555 33.4147 49.6552 33.4464 49.84 33.5097C50.0261 33.5731 50.1915 33.6629 50.3363 33.7793C50.4824 33.8957 50.6033 34.0339 50.699 34.1943C50.7946 34.3532 50.8592 34.5297 50.8929 34.7236H50.2782Z" fill="#C79E63"/>
<path d="M34.3203 49.92H56.1603V53.04H34.3203V49.92Z" fill="#C79E63"/>
</g>
<defs>
<clipPath id="clip0_251_3626">
<rect width="117" height="78" fill="white"/>
</clipPath>
</defs>
</svg>
