<svg width="117" height="78" viewBox="0 0 117 78" fill="none" xmlns="http://www.w3.org/2000/svg">
<g clip-path="url(#clip0_251_3652)">
<path d="M117 0H0V78H117V0Z" fill="#FFFAF4"/>
<path d="M28.0808 28.08H9.36078C8.49922 28.08 7.80078 28.7784 7.80078 29.64V48.36C7.80078 49.2216 8.49922 49.92 9.36078 49.92H28.0808C28.9423 49.92 29.6408 49.2216 29.6408 48.36V29.64C29.6408 28.7784 28.9423 28.08 28.0808 28.08Z" fill="#F9E5C8"/>
<path d="M13.4874 40.5968C13.3814 40.5968 13.2903 40.5594 13.214 40.4843C13.1377 40.4081 13.0996 40.3163 13.0996 40.209C13.0996 40.1031 13.1377 40.0126 13.214 39.9376C13.2903 39.8613 13.3814 39.8232 13.4874 39.8232C13.5934 39.8232 13.6845 39.8613 13.7608 39.9376C13.8371 40.0126 13.8752 40.1031 13.8752 40.209C13.8752 40.2801 13.8571 40.3455 13.8209 40.4049C13.786 40.4631 13.7395 40.5096 13.6813 40.5446C13.6231 40.5793 13.5585 40.5968 13.4874 40.5968ZM15.2974 36.589V40.56H14.6983V36.589H15.2974ZM16.1699 36.589H16.897L18.1611 39.6758H18.2077L19.4718 36.589H20.1989V40.56H19.6289V37.6865H19.5921L18.421 40.5542H17.9478L16.7767 37.6846H16.7399V40.56H16.1699V36.589ZM23.7574 37.8436C23.7198 37.7259 23.6695 37.6206 23.6061 37.5275C23.544 37.4331 23.4698 37.3529 23.3832 37.2871C23.2966 37.2199 23.1977 37.1689 23.0865 37.1339C22.9767 37.099 22.8558 37.0815 22.7239 37.0815C22.5002 37.0815 22.2987 37.1391 22.119 37.2542C21.9393 37.3692 21.7971 37.5378 21.6925 37.7603C21.589 37.9812 21.5372 38.252 21.5372 38.5726C21.5372 38.8945 21.5897 39.1666 21.6943 39.3889C21.799 39.6112 21.9425 39.7798 22.1247 39.895C22.3071 40.0099 22.5146 40.0675 22.7472 40.0675C22.9631 40.0675 23.1511 40.0235 23.3114 39.9357C23.473 39.8477 23.5977 39.7237 23.6857 39.5635C23.7748 39.4019 23.8194 39.2118 23.8194 38.9933L23.9746 39.0225H22.8383V38.5279H24.3992V38.9797C24.3992 39.3132 24.3281 39.6028 24.1858 39.8485C24.0449 40.0928 23.8498 40.2814 23.6003 40.4146C23.3521 40.5477 23.0678 40.6143 22.7472 40.6143C22.3879 40.6143 22.0725 40.5316 21.801 40.3661C21.5308 40.2006 21.3201 39.9661 21.1689 39.6622C21.0176 39.3572 20.9421 38.9953 20.9421 38.5765C20.9421 38.2598 20.9859 37.9754 21.0739 37.7233C21.1618 37.4714 21.2853 37.2573 21.4443 37.0815C21.6045 36.9044 21.7926 36.7694 22.0085 36.6764C22.2257 36.582 22.4628 36.5347 22.72 36.5347C22.9347 36.5347 23.1344 36.5664 23.3192 36.6297C23.5053 36.6931 23.6707 36.7829 23.8155 36.8993C23.9616 37.0157 24.0825 37.1539 24.1782 37.3143C24.2738 37.4732 24.3384 37.6497 24.3721 37.8436H23.7574Z" fill="#C79E63"/>
<path d="M56.1598 37.44H32.7598V39H56.1598V37.44Z" fill="#F9E5C8"/>
<path d="M56.1598 40.56H32.7598V42.12H56.1598V40.56Z" fill="#F9E5C8"/>
<path d="M53.0409 43.68H35.8809V45.24H53.0409V43.68Z" fill="#F9E5C8"/>
<path d="M56.1598 31.2H32.7598V34.32H56.1598V31.2Z" fill="#C79E63"/>
<path d="M81.1198 28.08H62.3998C61.5383 28.08 60.8398 28.7784 60.8398 29.64V48.36C60.8398 49.2216 61.5383 49.92 62.3998 49.92H81.1198C81.9814 49.92 82.6798 49.2216 82.6798 48.36V29.64C82.6798 28.7784 81.9814 28.08 81.1198 28.08Z" fill="#F9E5C8"/>
<path d="M66.5283 40.5968C66.4224 40.5968 66.3313 40.5594 66.255 40.4843C66.1787 40.4081 66.1406 40.3163 66.1406 40.209C66.1406 40.1031 66.1787 40.0126 66.255 39.9376C66.3313 39.8613 66.4224 39.8232 66.5283 39.8232C66.6344 39.8232 66.7255 39.8613 66.8018 39.9376C66.878 40.0126 66.9161 40.1031 66.9161 40.209C66.9161 40.2801 66.898 40.3455 66.8618 40.4049C66.8269 40.4631 66.7804 40.5096 66.7222 40.5446C66.664 40.5793 66.5994 40.5968 66.5283 40.5968ZM68.3384 36.589V40.56H67.7392V36.589H68.3384ZM69.2109 36.589H69.938L71.202 39.6758H71.2487L72.5128 36.589H73.2399V40.56H72.6699V37.6865H72.633L71.4619 40.5542H70.9888L69.8177 37.6846H69.7809V40.56H69.2109V36.589ZM76.7984 37.8436C76.7608 37.7259 76.7104 37.6206 76.6471 37.5275C76.585 37.4331 76.5107 37.3529 76.4241 37.2871C76.3376 37.2199 76.2387 37.1689 76.1274 37.1339C76.0176 37.099 75.8967 37.0815 75.7649 37.0815C75.5412 37.0815 75.3396 37.1391 75.1599 37.2542C74.9802 37.3692 74.8381 37.5378 74.7334 37.7603C74.63 37.9812 74.5782 38.252 74.5782 38.5726C74.5782 38.8945 74.6306 39.1666 74.7353 39.3889C74.84 39.6112 74.9835 39.7798 75.1657 39.895C75.3481 40.0099 75.5555 40.0675 75.7881 40.0675C76.004 40.0675 76.192 40.0235 76.3524 39.9357C76.514 39.8477 76.6386 39.7237 76.7266 39.5635C76.8157 39.4019 76.8603 39.2118 76.8603 38.9933L77.0155 39.0225H75.8792V38.5279H77.4402V38.9797C77.4402 39.3132 77.369 39.6028 77.2268 39.8485C77.0859 40.0928 76.8907 40.2814 76.6413 40.4146C76.3931 40.5477 76.1087 40.6143 75.7881 40.6143C75.4289 40.6143 75.1134 40.5316 74.842 40.3661C74.5718 40.2006 74.361 39.9661 74.2099 39.6622C74.0586 39.3572 73.9831 38.9953 73.9831 38.5765C73.9831 38.2598 74.0269 37.9754 74.1149 37.7233C74.2027 37.4714 74.3263 37.2573 74.4852 37.0815C74.6454 36.9044 74.8336 36.7694 75.0495 36.6764C75.2666 36.582 75.5037 36.5347 75.761 36.5347C75.9756 36.5347 76.1753 36.5664 76.3602 36.6297C76.5463 36.6931 76.7117 36.7829 76.8564 36.8993C77.0026 37.0157 77.1235 37.1539 77.2191 37.3143C77.3147 37.4732 77.3793 37.6497 77.413 37.8436H76.7984Z" fill="#C79E63"/>
<path d="M109.201 37.44H85.8008V39H109.201V37.44Z" fill="#F9E5C8"/>
<path d="M109.201 40.56H85.8008V42.12H109.201V40.56Z" fill="#F9E5C8"/>
<path d="M106.08 43.68H88.9199V45.24H106.08V43.68Z" fill="#F9E5C8"/>
<path d="M109.201 31.2H85.8008V34.32H109.201V31.2Z" fill="#C79E63"/>
</g>
<defs>
<clipPath id="clip0_251_3652">
<rect width="117" height="78" fill="white"/>
</clipPath>
</defs>
</svg>
