<svg width="105" height="36" viewBox="0 0 105 36" fill="none" xmlns="http://www.w3.org/2000/svg">
<path d="M13.7109 5.4082C12.7852 6.19336 12.3223 7.14844 12.3223 8.27344C12.3223 9.38672 12.627 10.5059 13.2363 11.6309C13.8574 12.7441 14.5781 13.6934 15.3984 14.4785C16.2188 15.2637 16.8516 15.8906 17.2969 16.3594C17.7539 16.8164 18.2637 17.373 18.8262 18.0293C19.4004 18.6738 19.8516 19.2539 20.1797 19.7695C20.9883 21.0234 21.3926 22.125 21.3926 23.0742C21.3926 24.0117 21.1934 24.8848 20.7949 25.6934C20.4082 26.502 19.8516 27.2402 19.125 27.9082C18.4102 28.5645 17.4902 29.1094 16.3652 29.543C15.252 29.9766 14.0215 30.2227 12.6738 30.2812C13.0488 29.7422 13.2363 29.1797 13.2363 28.5938C13.2363 27.9961 13.1133 27.3926 12.8672 26.7832C12.6211 26.1621 12.2461 25.5 11.7422 24.7969C10.9336 23.6602 10.0254 22.5469 9.01758 21.457C8.02148 20.3672 7.32422 19.5879 6.92578 19.1191C6.53906 18.6504 6.09961 18.0586 5.60742 17.3438C4.64648 15.9609 4.16602 14.5723 4.16602 13.1777C4.16602 11.7832 4.59375 10.4883 5.44922 9.29297C6.30469 8.09766 7.45898 7.1543 8.91211 6.46289C10.377 5.77148 11.9766 5.41992 13.7109 5.4082ZM19.5645 16.0254C19.5645 14.8887 19.3594 13.7168 18.9492 12.5098C18.1406 10.1543 16.793 8.25586 14.9062 6.81445C14.9297 6.60352 15.1289 6.35156 15.5039 6.05859C15.8789 5.76562 16.1895 5.61914 16.4355 5.61914C17.291 5.61914 18.2871 5.78906 19.4238 6.12891C20.5723 6.46875 21.4805 6.79688 22.1484 7.11328C22.207 7.46484 22.2363 8.08008 22.2363 8.95898C22.2363 9.82617 22.1543 10.916 21.9902 12.2285C21.8262 13.5293 21.627 14.5605 21.3926 15.3223C21.3223 15.498 21.0703 15.6621 20.6367 15.8145C20.2148 15.9551 19.8574 16.0254 19.5645 16.0254ZM11.1445 28.752C11.0039 29.5488 10.7871 30.082 10.4941 30.3516C9.26367 30.3516 7.81055 30.1934 6.13477 29.877C4.45898 29.5605 3.24023 29.1562 2.47852 28.6641C2.4668 28.4062 2.46094 28.0371 2.46094 27.5566C2.46094 25.2715 2.73047 23.1035 3.26953 21.0527C3.31641 20.8652 3.51562 20.6309 3.86719 20.3496C4.21875 20.0566 4.53516 19.9102 4.81641 19.9102C5.08594 21.1992 5.56641 22.4941 6.25781 23.7949C6.96094 25.0957 7.75195 26.1973 8.63086 27.0996C9.52148 27.9902 10.3594 28.541 11.1445 28.752ZM41.8184 12.5273C43.4121 13.0781 44.6191 13.8516 45.4395 14.8477C46.2715 15.832 46.6875 16.8867 46.6875 18.0117C46.6875 19.5469 46.0254 20.8477 44.7012 21.9141C43.377 22.9805 41.5723 23.5137 39.2871 23.5137C38.5723 23.5137 37.7871 23.3965 36.9316 23.1621C38.1738 22.3887 39.0117 21.3809 39.4453 20.1387C39.8203 19.0605 40.0078 17.7949 40.0078 16.3418C40.0078 16.0605 39.9785 15.1992 39.9199 13.7578C39.9082 13.6055 40.1426 13.3652 40.623 13.0371C41.1152 12.709 41.5137 12.5391 41.8184 12.5273ZM38.9707 12.2461C37.5176 13.2305 36.3633 14.5254 35.5078 16.1309C34.6641 17.7363 34.2422 19.4531 34.2422 21.2812C34.2422 23.1094 34.9453 24.5977 36.3516 25.7461C37.7578 26.8945 39.8086 27.4688 42.5039 27.4688C43.2422 27.4688 44.0332 27.4043 44.877 27.2754C44.3262 28.1426 43.2656 28.8691 41.6953 29.4551C40.125 30.0293 38.4785 30.3164 36.7559 30.3164C35.0332 30.3164 33.5625 30.1465 32.3438 29.8066C31.125 29.4551 30.0352 28.9395 29.0742 28.2598C28.125 27.5801 27.375 26.6953 26.8242 25.6055C26.2734 24.5039 25.998 23.2969 25.998 21.9844C25.998 20.6602 26.2031 19.4648 26.6133 18.3984C27.0234 17.332 27.5859 16.418 28.3008 15.6562C29.0156 14.8945 29.8477 14.2383 30.7969 13.6875C32.6836 12.6211 34.8574 12.0879 37.3184 12.0879C37.9277 12.0879 38.4785 12.1406 38.9707 12.2461ZM58.6055 28.8047C58.6055 28.9688 58.418 29.209 58.043 29.5254C57.668 29.8418 57.3398 30 57.0586 30H49.8164C50.332 27.7969 50.9238 24.1172 51.5918 18.9609C52.2715 13.8047 52.7402 9.76172 52.998 6.83203C52.998 6.67969 53.1855 6.45117 53.5605 6.14648C53.9355 5.83008 54.2578 5.67188 54.5273 5.67188H61.9277C61.3066 8.25 60.6621 11.9707 59.9941 16.834C59.3262 21.6855 58.8633 25.6758 58.6055 28.8047ZM73.582 28.8047C73.582 28.9688 73.3945 29.209 73.0195 29.5254C72.6445 29.8418 72.3164 30 72.0352 30H64.793C65.3086 27.7969 65.9004 24.1172 66.5684 18.9609C67.248 13.8047 67.7168 9.76172 67.9746 6.83203C67.9746 6.67969 68.1621 6.45117 68.5371 6.14648C68.9121 5.83008 69.2344 5.67188 69.5039 5.67188H76.9043C76.2832 8.25 75.6387 11.9707 74.9707 16.834C74.3027 21.6855 73.8398 25.6758 73.582 28.8047ZM92.6543 11.9473C89.8418 14.6426 88.4355 18.2812 88.4355 22.8633C88.4355 24.8086 88.6934 26.7656 89.209 28.7344C89.1973 28.9102 89.0039 29.1504 88.6289 29.4551C88.2656 29.7598 87.9551 29.9121 87.6973 29.9121C85.7285 29.6426 84.0234 28.8281 82.582 27.4688C81.0703 26.0391 80.3145 24.2578 80.3145 22.125C80.3145 19.9805 80.8477 18.1523 81.9141 16.6406C82.9922 15.1172 84.4629 13.957 86.3262 13.1602C88.1895 12.3516 90.2988 11.9473 92.6543 11.9473ZM90.2812 30.1582C93.0938 27.4629 94.5 23.8242 94.5 19.2422C94.5 17.2969 94.2422 15.3398 93.7266 13.3711C93.7383 13.1953 93.9258 12.9551 94.2891 12.6504C94.6641 12.3457 94.9805 12.1934 95.2383 12.1934C97.207 12.4629 98.9062 13.2773 100.336 14.6367C101.859 16.0664 102.621 17.8535 102.621 19.998C102.621 22.1309 102.082 23.959 101.004 25.4824C99.9375 26.9941 98.4727 28.1543 96.6094 28.9629C94.7461 29.7598 92.6367 30.1582 90.2812 30.1582Z" fill="#FF6F00"/>
</svg>
