<svg width="117" height="78" viewBox="0 0 117 78" fill="none" xmlns="http://www.w3.org/2000/svg">
<g clip-path="url(#clip0_251_3666)">
<path d="M117 0H0V78H117V0Z" fill="#FFFAF4"/>
<path d="M109.2 37.44H60.8398V39H109.2V37.44Z" fill="#F9E5C8"/>
<path d="M106.081 40.56H63.9609V42.12H106.081V40.56Z" fill="#F9E5C8"/>
<path d="M107.64 43.68H62.4004V45.24H107.64V43.68Z" fill="#F9E5C8"/>
<path d="M109.2 31.2H60.8398V34.32H109.2V31.2Z" fill="#C79E63"/>
<path d="M54.6008 20.28H9.36078C8.49922 20.28 7.80078 20.9784 7.80078 21.84V56.16C7.80078 57.0216 8.49922 57.72 9.36078 57.72H54.6008C55.4623 57.72 56.1608 57.0216 56.1608 56.16V21.84C56.1608 20.9784 55.4623 20.28 54.6008 20.28Z" fill="#F9E5C8"/>
<path d="M25.9998 41.5381C25.8788 41.5381 25.7746 41.4952 25.6874 41.4096C25.6002 41.3224 25.5566 41.2175 25.5566 41.0949C25.5566 40.9737 25.6002 40.8703 25.6874 40.7846C25.7746 40.6974 25.8788 40.6539 25.9998 40.6539C26.1211 40.6539 26.2251 40.6974 26.3123 40.7846C26.3995 40.8703 26.443 40.9737 26.443 41.0949C26.443 41.1762 26.4223 41.2508 26.3809 41.3186C26.3412 41.3852 26.288 41.4383 26.2214 41.4782C26.1549 41.5182 26.0811 41.5381 25.9998 41.5381ZM28.0684 36.9578V41.496H27.3837V36.9578H28.0684ZM29.0655 36.9578H29.8966L31.3413 40.4854H31.3945L32.8392 36.9578H33.6702V41.496H33.0187V38.212H32.9766L31.6381 41.4893H31.0976L29.7591 38.2097H29.717V41.496H29.0655V36.9578ZM37.737 38.3914C37.6941 38.257 37.6365 38.1367 37.5641 38.0303C37.4931 37.9225 37.4083 37.8308 37.3092 37.7554C37.2103 37.6787 37.0974 37.6203 36.9702 37.5804C36.8446 37.5406 36.7066 37.5207 36.5559 37.5207C36.3004 37.5207 36.0698 37.5863 35.8645 37.7178C35.6592 37.8494 35.4966 38.0422 35.377 38.2961C35.2589 38.5489 35.1998 38.8584 35.1998 39.2246C35.1998 39.5925 35.2595 39.9034 35.3792 40.1575C35.4988 40.4117 35.6629 40.6045 35.8712 40.736C36.0795 40.8673 36.3166 40.9332 36.5824 40.9332C36.8292 40.9332 37.0442 40.8829 37.2273 40.7825C37.412 40.682 37.5544 40.5402 37.6549 40.357C37.7569 40.1723 37.8079 39.9552 37.8079 39.7054L37.9852 39.7388H36.6866V39.1736H38.4705V39.69C38.4705 40.0711 38.3892 40.402 38.2267 40.6828C38.0657 40.9619 37.8426 41.1776 37.5574 41.3297C37.2738 41.482 36.9489 41.5579 36.5824 41.5579C36.1718 41.5579 35.8113 41.4634 35.5012 41.2743C35.1923 41.0853 34.9516 40.8171 34.7787 40.47C34.6059 40.1213 34.5195 39.7078 34.5195 39.2292C34.5195 38.8671 34.5697 38.5421 34.6702 38.2542C34.7706 37.966 34.9116 37.7216 35.0934 37.5207C35.2765 37.3182 35.4915 37.1639 35.7381 37.0575C35.9863 36.9497 36.2575 36.8957 36.5515 36.8957C36.7966 36.8957 37.025 36.9319 37.2362 37.0043C37.4488 37.0767 37.6379 37.1793 37.8034 37.3124C37.9703 37.4453 38.1086 37.6033 38.2178 37.7865C38.3271 37.9682 38.4011 38.1699 38.4394 38.3914H37.737Z" fill="#C79E63"/>
</g>
<defs>
<clipPath id="clip0_251_3666">
<rect width="117" height="78" fill="white"/>
</clipPath>
</defs>
</svg>
