<svg width="117" height="78" viewBox="0 0 117 78" fill="none" xmlns="http://www.w3.org/2000/svg">
<g clip-path="url(#clip0_251_3603)">
<path d="M115.44 0H1.56C0.698436 0 0 0.698436 0 1.56V76.44C0 77.3016 0.698436 78 1.56 78H115.44C116.302 78 117 77.3016 117 76.44V1.56C117 0.698436 116.302 0 115.44 0Z" fill="#FFFAF4"/>
<path d="M32.7608 15.6H9.36078C8.49922 15.6 7.80078 16.2984 7.80078 17.16V40.56C7.80078 41.4216 8.49922 42.12 9.36078 42.12H32.7608C33.6223 42.12 34.3208 41.4216 34.3208 40.56V17.16C34.3208 16.2984 33.6223 15.6 32.7608 15.6Z" fill="#F9E5C8"/>
<path d="M15.0799 31.2421C14.9588 31.2421 14.8546 31.1992 14.7675 31.1136C14.6803 31.0264 14.6367 30.9216 14.6367 30.7989C14.6367 30.6777 14.6803 30.5745 14.7675 30.4887C14.8546 30.4016 14.9588 30.3579 15.0799 30.3579C15.201 30.3579 15.3052 30.4016 15.3924 30.4887C15.4795 30.5745 15.5231 30.6777 15.5231 30.7989C15.5231 30.8802 15.5024 30.9548 15.461 31.0228C15.4211 31.0893 15.368 31.1425 15.3015 31.1822C15.235 31.2222 15.1612 31.2421 15.0799 31.2421ZM17.1485 26.6618V31.2H16.4638V26.6618H17.1485ZM18.1456 26.6618H18.9766L20.4213 30.1896H20.4745L21.9193 26.6618H22.7503V31.2H22.0988V27.9161H22.0567L20.7182 31.1933H20.1777L18.8392 27.9139H18.7971V31.2H18.1456V26.6618ZM26.817 28.0955C26.7741 27.9611 26.7166 27.8407 26.6442 27.7343C26.5732 27.6265 26.4883 27.535 26.3893 27.4596C26.2904 27.3827 26.1774 27.3244 26.0503 27.2846C25.9247 27.2446 25.7866 27.2247 25.636 27.2247C25.3804 27.2247 25.1499 27.2903 24.9446 27.4219C24.7393 27.5534 24.5767 27.7462 24.4571 28.0003C24.339 28.2529 24.2798 28.5624 24.2798 28.9287C24.2798 29.2965 24.3396 29.6076 24.4592 29.8615C24.5789 30.1157 24.743 30.3085 24.9513 30.44C25.1595 30.5715 25.3966 30.6372 25.6625 30.6372C25.9093 30.6372 26.1242 30.5869 26.3074 30.4865C26.4921 30.386 26.6345 30.2442 26.735 30.0611C26.837 29.8764 26.888 29.6592 26.888 29.4096L27.0652 29.4428H25.7667V28.8778H27.5505V29.394C27.5505 29.7751 27.4693 30.1061 27.3067 30.3868C27.1457 30.666 26.9226 30.8816 26.6375 31.0339C26.3539 31.186 26.0289 31.2621 25.6625 31.2621C25.2519 31.2621 24.8914 31.1676 24.5812 30.9785C24.2724 30.7893 24.0316 30.5213 23.8588 30.174C23.686 29.8253 23.5995 29.4118 23.5995 28.9332C23.5995 28.5713 23.6498 28.2462 23.7502 27.9582C23.8507 27.67 23.9917 27.4256 24.1735 27.2247C24.3566 27.0223 24.5716 26.8679 24.8182 26.7615C25.0664 26.6537 25.3375 26.5997 25.6316 26.5997C25.8767 26.5997 26.105 26.6359 26.3163 26.7083C26.5289 26.7807 26.718 26.8835 26.8835 27.0164C27.0504 27.1493 27.1886 27.3073 27.2978 27.4906C27.4072 27.6722 27.4811 27.8739 27.5195 28.0955H26.817Z" fill="#C79E63"/>
<path d="M34.3208 51.48H7.80078V53.04H34.3208V51.48Z" fill="#F9E5C8"/>
<path d="M34.3208 54.6H7.80078V56.16H34.3208V54.6Z" fill="#F9E5C8"/>
<path d="M29.6405 60.84H12.4805V62.4H29.6405V60.84Z" fill="#F9E5C8"/>
<path d="M32.7594 57.72H9.35938V59.28H32.7594V57.72Z" fill="#F9E5C8"/>
<path d="M34.3208 45.24H7.80078V48.36H34.3208V45.24Z" fill="#C79E63"/>
<path d="M70.2002 15.6H46.8002C45.9387 15.6 45.2402 16.2984 45.2402 17.16V40.56C45.2402 41.4216 45.9387 42.12 46.8002 42.12H70.2002C71.0618 42.12 71.7602 41.4216 71.7602 40.56V17.16C71.7602 16.2984 71.0618 15.6 70.2002 15.6Z" fill="#F9E5C8"/>
<path d="M52.5213 31.2421C52.4003 31.2421 52.2961 31.1992 52.2088 31.1136C52.1216 31.0264 52.0781 30.9216 52.0781 30.7989C52.0781 30.6777 52.1216 30.5745 52.2088 30.4887C52.2961 30.4016 52.4003 30.3579 52.5213 30.3579C52.6425 30.3579 52.7466 30.4016 52.8338 30.4887C52.921 30.5745 52.9645 30.6777 52.9645 30.7989C52.9645 30.8802 52.9438 30.9548 52.9024 31.0228C52.8626 31.0893 52.8094 31.1425 52.7428 31.1822C52.6764 31.2222 52.6026 31.2421 52.5213 31.2421ZM54.5899 26.6618V31.2H53.9052V26.6618H54.5899ZM55.587 26.6618H56.418L57.8628 30.1896H57.916L59.3607 26.6618H60.1917V31.2H59.5402V27.9161H59.4981L58.1596 31.1933H57.6191L56.2806 27.9139H56.2385V31.2H55.587V26.6618ZM64.2584 28.0955C64.2155 27.9611 64.158 27.8407 64.0856 27.7343C64.0146 27.6265 63.9298 27.535 63.8307 27.4596C63.7318 27.3827 63.6188 27.3244 63.4917 27.2846C63.3661 27.2446 63.2281 27.2247 63.0774 27.2247C62.8218 27.2247 62.5913 27.2903 62.386 27.4219C62.1807 27.5534 62.0181 27.7462 61.8985 28.0003C61.7804 28.2529 61.7213 28.5624 61.7213 28.9287C61.7213 29.2965 61.781 29.6076 61.9007 29.8615C62.0203 30.1157 62.1844 30.3085 62.3927 30.44C62.601 30.5715 62.8381 30.6372 63.1039 30.6372C63.3507 30.6372 63.5656 30.5869 63.7488 30.4865C63.9335 30.386 64.0759 30.2442 64.1764 30.0611C64.2784 29.8764 64.3294 29.6592 64.3294 29.4096L64.5066 29.4428H63.2081V28.8778H64.992V29.394C64.992 29.7751 64.9107 30.1061 64.7481 30.3868C64.5871 30.666 64.3641 30.8816 64.0789 31.0339C63.7953 31.186 63.4703 31.2621 63.1039 31.2621C62.6933 31.2621 62.3328 31.1676 62.0227 30.9785C61.7138 30.7893 61.4731 30.5213 61.3002 30.174C61.1274 29.8253 61.0409 29.4118 61.0409 28.9332C61.0409 28.5713 61.0912 28.2462 61.1916 27.9582C61.2921 27.67 61.4331 27.4256 61.6149 27.2247C61.798 27.0223 62.013 26.8679 62.2596 26.7615C62.5078 26.6537 62.7789 26.5997 63.073 26.5997C63.3181 26.5997 63.5465 26.6359 63.7577 26.7083C63.9703 26.7807 64.1594 26.8835 64.3249 27.0164C64.4918 27.1493 64.63 27.3073 64.7392 27.4906C64.8486 27.6722 64.9225 27.8739 64.9609 28.0955H64.2584Z" fill="#C79E63"/>
<path d="M71.7602 51.48H45.2402V53.04H71.7602V51.48Z" fill="#F9E5C8"/>
<path d="M71.7602 54.6H45.2402V56.16H71.7602V54.6Z" fill="#F9E5C8"/>
<path d="M67.0799 60.84H49.9199V62.4H67.0799V60.84Z" fill="#F9E5C8"/>
<path d="M70.2008 57.72H46.8008V59.28H70.2008V57.72Z" fill="#F9E5C8"/>
<path d="M71.7602 45.24H45.2402V48.36H71.7602V45.24Z" fill="#C79E63"/>
<path d="M107.64 15.6H84.2397C83.3781 15.6 82.6797 16.2984 82.6797 17.16V40.56C82.6797 41.4216 83.3781 42.12 84.2397 42.12H107.64C108.501 42.12 109.2 41.4216 109.2 40.56V17.16C109.2 16.2984 108.501 15.6 107.64 15.6Z" fill="#F9E5C8"/>
<path d="M89.9608 31.2421C89.8397 31.2421 89.7355 31.1992 89.6483 31.1136C89.5611 31.0264 89.5176 30.9216 89.5176 30.7989C89.5176 30.6777 89.5611 30.5745 89.6483 30.4887C89.7355 30.4016 89.8397 30.3579 89.9608 30.3579C90.082 30.3579 90.186 30.4016 90.2732 30.4887C90.3604 30.5745 90.404 30.6777 90.404 30.7989C90.404 30.8802 90.3832 30.9548 90.3419 31.0228C90.3021 31.0893 90.2489 31.1425 90.1823 31.1822C90.1158 31.2222 90.042 31.2421 89.9608 31.2421ZM92.0293 26.6618V31.2H91.3446V26.6618H92.0293ZM93.0265 26.6618H93.8575L95.3022 30.1896H95.3554L96.8001 26.6618H97.6311V31.2H96.9797V27.9161H96.9376L95.5991 31.1933H95.0585L93.7201 27.9139H93.6779V31.2H93.0265V26.6618ZM101.698 28.0955C101.655 27.9611 101.597 27.8407 101.525 27.7343C101.454 27.6265 101.369 27.535 101.27 27.4596C101.171 27.3827 101.058 27.3244 100.931 27.2846C100.806 27.2446 100.668 27.2247 100.517 27.2247C100.261 27.2247 100.031 27.2903 99.8254 27.4219C99.6201 27.5534 99.4576 27.7462 99.3379 28.0003C99.2198 28.2529 99.1607 28.5624 99.1607 28.9287C99.1607 29.2965 99.2205 29.6076 99.3401 29.8615C99.4598 30.1157 99.6239 30.3085 99.8321 30.44C100.04 30.5715 100.278 30.6372 100.543 30.6372C100.79 30.6372 101.005 30.5869 101.188 30.4865C101.373 30.386 101.515 30.2442 101.616 30.0611C101.718 29.8764 101.769 29.6592 101.769 29.4096L101.946 29.4428H100.648V28.8778H102.431V29.394C102.431 29.7751 102.35 30.1061 102.188 30.3868C102.027 30.666 101.804 30.8816 101.518 31.0339C101.235 31.186 100.91 31.2621 100.543 31.2621C100.133 31.2621 99.7722 31.1676 99.4621 30.9785C99.1532 30.7893 98.9125 30.5213 98.7397 30.174C98.5668 29.8253 98.4804 29.4118 98.4804 28.9332C98.4804 28.5713 98.5306 28.2462 98.6311 27.9582C98.7316 27.67 98.8726 27.4256 99.0543 27.2247C99.2375 27.0223 99.4524 26.8679 99.6991 26.7615C99.9473 26.6537 100.218 26.5997 100.512 26.5997C100.758 26.5997 100.986 26.6359 101.197 26.7083C101.41 26.7807 101.599 26.8835 101.764 27.0164C101.931 27.1493 102.069 27.3073 102.179 27.4906C102.288 27.6722 102.362 27.8739 102.4 28.0955H101.698Z" fill="#C79E63"/>
<path d="M109.2 51.48H82.6797V53.04H109.2V51.48Z" fill="#F9E5C8"/>
<path d="M109.2 54.6H82.6797V56.16H109.2V54.6Z" fill="#F9E5C8"/>
<path d="M104.519 60.84H87.3594V62.4H104.519V60.84Z" fill="#F9E5C8"/>
<path d="M107.64 57.72H84.2402V59.28H107.64V57.72Z" fill="#F9E5C8"/>
<path d="M109.2 45.24H82.6797V48.36H109.2V45.24Z" fill="#C79E63"/>
</g>
<defs>
<clipPath id="clip0_251_3603">
<rect width="117" height="78" fill="white"/>
</clipPath>
</defs>
</svg>
