<svg width="117" height="78" viewBox="0 0 117 78" fill="none" xmlns="http://www.w3.org/2000/svg">
<g clip-path="url(#clip0_251_3682)">
<path d="M117 0H0V78H117V0Z" fill="#FFFAF4"/>
<path d="M54.6008 15.6H9.36078C8.49922 15.6 7.80078 16.2984 7.80078 17.16V42.12C7.80078 42.9816 8.49922 43.68 9.36078 43.68H54.6008C55.4623 43.68 56.1608 42.9816 56.1608 42.12V17.16C56.1608 16.2984 55.4623 15.6 54.6008 15.6Z" fill="#F9E5C8"/>
<path d="M27.5283 31.2368C27.4224 31.2368 27.3313 31.1994 27.255 31.1244C27.1787 31.0481 27.1406 30.9563 27.1406 30.849C27.1406 30.7431 27.1787 30.6526 27.255 30.5776C27.3313 30.5013 27.4224 30.4632 27.5283 30.4632C27.6344 30.4632 27.7255 30.5013 27.8018 30.5776C27.878 30.6526 27.9161 30.7431 27.9161 30.849C27.9161 30.9201 27.898 30.9855 27.8618 31.0449C27.8269 31.1031 27.7804 31.1496 27.7222 31.1846C27.664 31.2194 27.5994 31.2368 27.5283 31.2368ZM29.3384 27.229V31.2H28.7392V27.229H29.3384ZM30.2109 27.229H30.938L32.202 30.3158H32.2487L33.5128 27.229H34.2399V31.2H33.6698V28.3265H33.633L32.4619 31.1942H31.9888L30.8177 28.3246H30.7809V31.2H30.2109V27.229ZM37.7984 28.4836C37.7608 28.366 37.7104 28.2607 37.6471 28.1675C37.585 28.0731 37.5107 27.993 37.4241 27.9271C37.3376 27.8599 37.2387 27.8089 37.1274 27.7739C37.0176 27.739 36.8967 27.7215 36.7649 27.7215C36.5412 27.7215 36.3396 27.7791 36.1599 27.8942C35.9802 28.0092 35.8381 28.1778 35.7334 28.4003C35.63 28.6212 35.5782 28.892 35.5782 29.2126C35.5782 29.5346 35.6306 29.8066 35.7353 30.0289C35.84 30.2512 35.9835 30.4199 36.1657 30.535C36.3481 30.65 36.5555 30.7075 36.7881 30.7075C37.004 30.7075 37.192 30.6635 37.3524 30.5757C37.514 30.4877 37.6386 30.3637 37.7266 30.2035C37.8157 30.0419 37.8603 29.8519 37.8603 29.6333L38.0155 29.6625H36.8792V29.168H38.4402V29.6197C38.4402 29.9533 38.369 30.2428 38.2268 30.4885C38.0859 30.7328 37.8907 30.9214 37.6413 31.0546C37.3931 31.1877 37.1087 31.2543 36.7881 31.2543C36.4289 31.2543 36.1134 31.1716 35.842 31.0061C35.5718 30.8406 35.361 30.6061 35.2099 30.3022C35.0586 29.9973 34.9831 29.6353 34.9831 29.2165C34.9831 28.8998 35.0269 28.6154 35.1149 28.3633C35.2027 28.1114 35.3263 27.8973 35.4852 27.7215C35.6454 27.5445 35.8336 27.4094 36.0495 27.3164C36.2666 27.222 36.5037 27.1747 36.761 27.1747C36.9756 27.1747 37.1753 27.2064 37.3602 27.2697C37.5463 27.3331 37.7117 27.4229 37.8564 27.5393C38.0026 27.6557 38.1235 27.7939 38.2191 27.9543C38.3147 28.1132 38.3793 28.2897 38.413 28.4836H37.7984Z" fill="#C79E63"/>
<path d="M56.1608 51.48H7.80078V53.04H56.1608V51.48Z" fill="#F9E5C8"/>
<path d="M53.0399 54.6H10.9199V56.16H53.0399V54.6Z" fill="#F9E5C8"/>
<path d="M54.5994 57.72H9.35938V59.28H54.5994V57.72Z" fill="#F9E5C8"/>
<path d="M56.1608 46.8H7.80078V49.92H56.1608V46.8Z" fill="#C79E63"/>
<path d="M107.64 15.6H62.3998C61.5383 15.6 60.8398 16.2984 60.8398 17.16V42.12C60.8398 42.9816 61.5383 43.68 62.3998 43.68H107.64C108.501 43.68 109.2 42.9816 109.2 42.12V17.16C109.2 16.2984 108.501 15.6 107.64 15.6Z" fill="#F9E5C8"/>
<path d="M80.5673 31.2368C80.4614 31.2368 80.3703 31.1994 80.294 31.1244C80.2178 31.0481 80.1797 30.9563 80.1797 30.849C80.1797 30.7431 80.2178 30.6526 80.294 30.5776C80.3703 30.5013 80.4614 30.4632 80.5673 30.4632C80.6734 30.4632 80.7645 30.5013 80.8408 30.5776C80.9171 30.6526 80.9552 30.7431 80.9552 30.849C80.9552 30.9201 80.9371 30.9855 80.9009 31.0449C80.8659 31.1031 80.8194 31.1496 80.7613 31.1846C80.7031 31.2194 80.6385 31.2368 80.5673 31.2368ZM82.3774 27.229V31.2H81.7782V27.229H82.3774ZM83.2499 27.229H83.977L85.2411 30.3158H85.2878L86.5518 27.229H87.2789V31.2H86.7089V28.3265H86.6721L85.501 31.1942H85.0279L83.8568 28.3246H83.8199V31.2H83.2499V27.229ZM90.8375 28.4836C90.7999 28.366 90.7495 28.2607 90.6861 28.1675C90.624 28.0731 90.5498 27.993 90.4632 27.9271C90.3766 27.8599 90.2777 27.8089 90.1665 27.7739C90.0567 27.739 89.9358 27.7215 89.804 27.7215C89.5802 27.7215 89.3787 27.7791 89.199 27.8942C89.0193 28.0092 88.8772 28.1778 88.7725 28.4003C88.6691 28.6212 88.6173 28.892 88.6173 29.2126C88.6173 29.5346 88.6697 29.8066 88.7744 30.0289C88.879 30.2512 89.0225 30.4199 89.2048 30.535C89.3871 30.65 89.5946 30.7075 89.8272 30.7075C90.0431 30.7075 90.2311 30.6635 90.3914 30.5757C90.5531 30.4877 90.6777 30.3637 90.7657 30.2035C90.8548 30.0419 90.8994 29.8519 90.8994 29.6333L91.0546 29.6625H89.9183V29.168H91.4792V29.6197C91.4792 29.9533 91.4081 30.2428 91.2658 30.4885C91.125 30.7328 90.9298 30.9214 90.6804 31.0546C90.4322 31.1877 90.1478 31.2543 89.8272 31.2543C89.4679 31.2543 89.1525 31.1716 88.8811 31.0061C88.6109 30.8406 88.4001 30.6061 88.2489 30.3022C88.0976 29.9973 88.0221 29.6353 88.0221 29.2165C88.0221 28.8998 88.066 28.6154 88.1539 28.3633C88.2418 28.1114 88.3653 27.8973 88.5243 27.7215C88.6845 27.5445 88.8726 27.4094 89.0885 27.3164C89.3057 27.222 89.5428 27.1747 89.8001 27.1747C90.0147 27.1747 90.2144 27.2064 90.3993 27.2697C90.5854 27.3331 90.7507 27.4229 90.8955 27.5393C91.0417 27.6557 91.1626 27.7939 91.2582 27.9543C91.3538 28.1132 91.4184 28.2897 91.4521 28.4836H90.8375Z" fill="#C79E63"/>
<path d="M109.2 51.48H60.8398V53.04H109.2V51.48Z" fill="#F9E5C8"/>
<path d="M106.081 54.6H63.9609V56.16H106.081V54.6Z" fill="#F9E5C8"/>
<path d="M107.64 57.72H62.4004V59.28H107.64V57.72Z" fill="#F9E5C8"/>
<path d="M109.2 46.8H60.8398V49.92H109.2V46.8Z" fill="#C79E63"/>
</g>
<defs>
<clipPath id="clip0_251_3682">
<rect width="117" height="78" fill="white"/>
</clipPath>
</defs>
</svg>
